#N canvas 222 215 769 646 12;
#X obj 171 292 pyext my_pd_objects.simple_object, f 44;
#X msg 101 224 reload;
#X floatatom 172 342 5 0 0 0 - - - 0;
#X floatatom 248 344 5 0 0 0 - - - 0;
#X floatatom 324 344 5 0 0 0 - - - 0;
#X floatatom 400 344 5 0 0 0 - - - 0;
#X obj 172 388 mtof;
#X obj 248 388 mtof;
#X obj 325 388 mtof;
#X obj 400 386 mtof;
#X obj 277 564 dac~;
#X obj 248 428 osc~;
#X obj 324 427 osc~;
#X obj 400 426 osc~;
#X obj 172 427 osc~;
#X msg 548 233 newChord;
#X obj 196 150 hsl 128 15 1 20 0 0 empty empty Sequence\ Length[1-20]
-4 -8 0 12 #c6ffc7 #000000 #000000 0 1;
#X obj 193 182 i;
#X floatatom 193 202 5 0 0 0 - - - 0;
#X msg 374 136 cond 0;
#X msg 603 150 tempo \$1 permin;
#X obj 548 208 bng 15 250 50 0 empty empty empty 17 7 0 10 #00ff04
#000000 #000000;
#X obj 548 148 tgl 30 0 empty empty ON/OFF -8 -10 0 14 #ff0400 #000000
#000000 0 1;
#X obj 548 178 metro 1 100 permin;
#X obj 279 482 +~;
#X obj 277 522 /~ 4;
#X msg 375 166 cond 1;
#X msg 375 195 cond 2;
#X msg 193 222 gen \$1;
#X msg 280 222 gen 8;
#X text 428 135 Major;
#X text 430 164 Minor;
#X text 429 194 Fifth;
#X obj 138 18 cnv 15 500 60 empty empty empty 20 12 0 14 #ff8300 #404040
0;
#X text 244 37 MARKOV CHORDS PROGRESSION: Autumn Leaves;
#X connect 0 0 2 0;
#X connect 0 1 3 0;
#X connect 0 2 4 0;
#X connect 0 3 5 0;
#X connect 1 0 0 0;
#X connect 2 0 6 0;
#X connect 3 0 7 0;
#X connect 4 0 8 0;
#X connect 5 0 9 0;
#X connect 6 0 14 0;
#X connect 7 0 11 0;
#X connect 8 0 12 0;
#X connect 9 0 13 0;
#X connect 11 0 24 0;
#X connect 12 0 24 0;
#X connect 13 0 24 0;
#X connect 14 0 24 0;
#X connect 15 0 0 3;
#X connect 16 0 17 0;
#X connect 17 0 18 0;
#X connect 18 0 28 0;
#X connect 19 0 0 2;
#X connect 20 0 23 0;
#X connect 21 0 15 0;
#X connect 22 0 23 0;
#X connect 23 0 21 0;
#X connect 24 0 25 0;
#X connect 26 0 0 2;
#X connect 27 0 0 2;
#X connect 28 0 0 1;
#X connect 29 0 0 1;
